<svg width="144" height="21" viewBox="0 0 144 21" fill="none" xmlns="http://www.w3.org/2000/svg">
<path d="M142.797 16.4735H137.396C137.225 16.4735 137.085 16.335 137.085 16.1626V13.303C137.085 13.1319 137.224 12.9921 137.396 12.9921H142.466C142.587 12.9921 142.685 12.8943 142.685 12.7735V11.1264C142.685 11.0056 142.587 10.9078 142.466 10.9078H137.396C137.225 10.9078 137.085 10.7693 137.085 10.5969V7.98308C137.085 7.81199 137.224 7.67214 137.396 7.67214H142.792C142.913 7.67214 143.011 7.57438 143.011 7.45353V5.8065C143.011 5.68565 142.913 5.58789 142.792 5.58789H134.58C134.459 5.58789 134.361 5.68565 134.361 5.8065V18.3378C134.361 18.4586 134.459 18.5564 134.58 18.5564H142.797C142.918 18.5564 143.016 18.4586 143.016 18.3378V16.6908C143.016 16.5699 142.918 16.4722 142.797 16.4722V16.4735Z" fill="white"/>
<path d="M118.43 6.2403C117.489 5.70261 116.369 5.42969 115.101 5.42969C113.833 5.42969 112.71 5.70261 111.762 6.2403C110.813 6.77936 110.074 7.55874 109.566 8.55538C109.06 9.5493 108.803 10.7333 108.803 12.0721C108.803 13.4109 109.06 14.595 109.566 15.5889C110.074 16.5869 110.813 17.3649 111.762 17.904C112.708 18.4416 113.833 18.7146 115.101 18.7146C116.369 18.7146 117.489 18.4416 118.43 17.904C119.372 17.3649 120.108 16.5869 120.616 15.5889C121.123 14.595 121.379 13.4109 121.379 12.0721C121.379 10.7333 121.123 9.55066 120.616 8.55538C120.108 7.55874 119.372 6.77936 118.43 6.2403ZM116.88 16.0818C116.321 16.4457 115.853 16.6303 115.101 16.6303C114.349 16.6303 113.852 16.4457 113.295 16.0818C112.737 15.7179 112.3 15.187 111.993 14.504C111.685 13.8183 111.528 12.9995 111.528 12.0721C111.528 11.1447 111.682 10.326 111.983 9.63892C112.283 8.95594 112.722 8.42639 113.284 8.06249C113.848 7.6986 114.351 7.51394 115.117 7.51394C115.883 7.51394 116.335 7.6986 116.886 8.06114C117.438 8.42503 117.873 8.95594 118.179 9.63892C118.487 10.326 118.643 11.1434 118.643 12.0708C118.643 12.9982 118.487 13.8169 118.179 14.5026C117.872 15.1856 117.435 15.7165 116.878 16.0804L116.88 16.0818Z" fill="white"/>
<path d="M130.642 6.09571C129.925 5.75898 129.079 5.58789 128.126 5.58789H123.318C123.197 5.58789 123.1 5.68565 123.1 5.8065V18.3378C123.1 18.4586 123.197 18.5564 123.318 18.5564H125.62C125.741 18.5564 125.838 18.4586 125.838 18.3378V14.2562C125.838 14.1286 125.942 14.0254 126.069 14.0254H127.999C128.987 14.0254 129.862 13.8516 130.596 13.5094C131.335 13.1645 131.909 12.6675 132.304 12.0321C132.698 11.398 132.899 10.6458 132.899 9.79848C132.899 8.9512 132.702 8.19897 132.314 7.56487C131.925 6.93077 131.363 6.43653 130.642 6.09707V6.09571ZM130.073 10.9323C129.883 11.2541 129.609 11.5053 129.257 11.6777C128.902 11.8529 128.479 11.9411 127.999 11.9411H126.149C125.978 11.9411 125.838 11.8026 125.838 11.6302V7.98308C125.838 7.81199 125.977 7.67214 126.149 7.67214H128.126C128.581 7.67214 128.983 7.7604 129.32 7.9342C129.654 8.10664 129.913 8.35105 130.091 8.66199C130.27 8.97293 130.36 9.34904 130.36 9.77947C130.36 10.2099 130.263 10.6091 130.073 10.9323Z" fill="white"/>
<path d="M94.3087 13.385C94.0793 12.9627 93.7643 12.5974 93.3732 12.3001C92.9849 12.0041 92.5409 11.7569 92.0548 11.5628C91.5714 11.37 91.0622 11.2152 90.5422 11.1038L89.2549 10.8051C88.9793 10.744 88.701 10.668 88.4294 10.5784C88.1619 10.4901 87.9148 10.3788 87.6962 10.2498C87.483 10.1235 87.3133 9.9687 87.1924 9.78676C87.0729 9.61024 87.0118 9.39706 87.0118 9.15266C87.0159 8.85665 87.1096 8.59052 87.2915 8.35969C87.4748 8.1275 87.7451 7.94012 88.0954 7.80298C88.4498 7.66449 88.8843 7.59388 89.3839 7.59388C90.0941 7.59388 90.6766 7.74053 91.1165 8.02974C91.5021 8.28229 91.7425 8.63804 91.8321 9.08612C91.8565 9.20697 91.9706 9.29387 92.105 9.29387L94.1811 9.28979C94.3047 9.28979 94.4065 9.21783 94.4499 9.10377C94.4595 9.07933 94.4622 9.05218 94.4595 9.02095C94.4106 8.35697 94.1879 7.76089 93.7996 7.24764C93.3705 6.68143 92.773 6.23199 92.0249 5.9129C91.2794 5.59517 90.4023 5.43359 89.4179 5.43359C88.4335 5.43359 87.5658 5.59517 86.7959 5.91155C86.0233 6.23063 85.4028 6.6855 84.9534 7.26122C84.5012 7.841 84.2731 8.52534 84.2731 9.29387C84.2731 10.2335 84.6153 10.9966 85.2901 11.5641C85.9541 12.1222 86.8693 12.5431 88.0112 12.816L89.5713 13.1894C90.0547 13.3049 90.4824 13.4352 90.8436 13.5791C91.1953 13.719 91.4709 13.8942 91.6637 14.0992C91.8497 14.2974 91.9461 14.5513 91.9502 14.8541C91.9461 15.1936 91.8348 15.4937 91.6203 15.7462C91.4017 16.0028 91.0934 16.2052 90.7051 16.3491C90.3113 16.4944 89.847 16.5691 89.3242 16.5691C88.8014 16.5691 88.3642 16.4984 87.9609 16.3572C87.5645 16.2187 87.2386 16.0083 86.9942 15.7286C86.7851 15.4909 86.6507 15.1868 86.5963 14.8283C86.5773 14.7034 86.4592 14.6097 86.3221 14.6097L84.2025 14.6138C84.1251 14.6138 84.0504 14.6437 83.9975 14.698C83.9459 14.7509 83.9201 14.8188 83.9255 14.8894C83.9907 15.6715 84.2337 16.3491 84.6452 16.9004C85.0946 17.5032 85.7273 17.9676 86.5271 18.2813C87.3201 18.5922 88.2692 18.7497 89.3446 18.7497C90.42 18.7497 91.4125 18.5868 92.1973 18.265C92.9876 17.9418 93.6013 17.4829 94.0222 16.9031C94.4432 16.3219 94.6577 15.6403 94.6577 14.8759C94.6577 14.311 94.5409 13.8086 94.3115 13.3863L94.3087 13.385Z" fill="white"/>
<path d="M107.433 14.0741L105.324 14.0687C105.199 14.0687 105.091 14.1597 105.066 14.286C104.982 14.73 104.817 15.1251 104.575 15.4591C104.302 15.838 103.938 16.1299 103.494 16.3281C103.049 16.5277 102.529 16.6296 101.952 16.6296C101.21 16.6296 100.74 16.4449 100.201 16.0824C99.6609 15.7185 99.2386 15.1876 98.9453 14.5059C98.6493 13.8202 98.4986 13.0015 98.4986 12.0727C98.4986 11.144 98.652 10.3279 98.9535 9.63952C99.2535 8.95789 99.688 8.42699 100.246 8.06309C100.803 7.6992 101.289 7.51453 102.042 7.51453C102.572 7.51453 103.058 7.6123 103.484 7.80646C103.909 7.99927 104.254 8.27898 104.51 8.6388C104.736 8.95789 104.893 9.32993 104.974 9.74135C104.998 9.86627 105.107 9.95725 105.232 9.95725L107.361 9.95181C107.437 9.95181 107.508 9.91923 107.558 9.8622C107.608 9.80381 107.631 9.72642 107.62 9.65038C107.509 8.85198 107.229 8.13777 106.788 7.52811C106.303 6.85871 105.643 6.33595 104.827 5.97477C104.014 5.61359 103.077 5.43164 102.041 5.43164C100.773 5.43164 99.6554 5.70456 98.7199 6.24226C97.783 6.78131 97.0484 7.55934 96.5338 8.55598C96.0219 9.5499 95.7612 10.7339 95.7612 12.0727C95.7612 13.4115 96.0151 14.5955 96.5148 15.5881C97.0159 16.5848 97.7396 17.3641 98.6642 17.9032C99.5876 18.4409 100.693 18.7138 101.949 18.7138C103.021 18.7138 103.983 18.5278 104.807 18.1612C105.634 17.7932 106.309 17.2582 106.813 16.5712C107.27 15.9466 107.565 15.2079 107.688 14.3783C107.699 14.3009 107.677 14.2221 107.627 14.1651C107.578 14.1081 107.506 14.0741 107.43 14.0741H107.433Z" fill="white"/>
<path d="M10.5 0C4.70076 0 0 4.70076 0 10.5C0 16.2992 4.70076 21 10.5 21C16.2992 21 21 16.2992 21 10.5C21 4.70076 16.2992 0 10.5 0ZM13.6556 9.79801C11.5482 9.82516 9.84825 11.5279 9.82245 13.6311H9.82109C9.82109 13.6474 9.82109 13.6637 9.82109 13.68C9.82109 15.0487 8.71175 16.158 7.34307 16.158C5.9744 16.158 4.86506 15.0487 4.86506 13.68C4.86506 12.3113 5.9744 11.202 7.34307 11.202H7.34443C8.36551 11.202 9.3445 10.7933 10.0641 10.0682C10.7838 9.34314 11.1843 8.36008 11.1762 7.339C11.1762 7.33221 11.1762 7.32678 11.1762 7.31999C11.1762 5.95131 12.2855 4.84198 13.6542 4.84198C15.0229 4.84198 16.1322 5.95131 16.1322 7.31999C16.1322 8.68867 15.0229 9.79801 13.6542 9.79801H13.6556Z" fill="#00C9EA"/>
<path d="M65.8011 3.03125H67.9478C68.0659 3.03125 68.161 3.1263 68.161 3.24443V5.39114C68.161 5.50927 68.0659 5.60431 67.9478 5.60431H65.8011C65.6829 5.60431 65.5879 5.50927 65.5879 5.39114V3.24443C65.5879 3.1263 65.6829 3.03125 65.8011 3.03125Z" fill="white"/>
<path d="M50.276 7.10938H48.1293C48.0125 7.10938 47.9161 7.20442 47.9161 7.32255V14.2311C47.9161 14.5584 47.8075 14.8693 47.6093 15.1056C47.3092 15.4667 46.9562 15.7845 46.561 16.052C46.0247 16.4145 45.4177 16.5992 44.7551 16.5992C43.8875 16.5992 43.2167 16.371 42.7605 15.923C42.3043 15.4749 42.0721 14.7838 42.0721 13.8686V7.32255C42.0721 7.20578 41.977 7.10938 41.8589 7.10938H39.7122C39.5941 7.10938 39.499 7.20442 39.499 7.32255V14.1999C39.499 15.5944 39.9213 16.7363 40.7536 17.5931C41.586 18.4499 42.7564 18.8844 44.2297 18.8844C45.0539 18.8844 45.8224 18.7038 46.5108 18.3467C47.1911 17.995 47.7586 17.5496 48.1999 17.0201V18.3616C48.1999 18.4784 48.295 18.5748 48.4131 18.5748H50.2733C50.3901 18.5748 50.4865 18.4797 50.4865 18.3616V7.32255C50.4865 7.20578 50.3914 7.10938 50.2733 7.10938H50.276Z" fill="white"/>
<path d="M61.2973 7.39431C60.5912 6.99783 59.7589 6.79688 58.8247 6.79688C58.0005 6.79688 57.2334 6.97746 56.5436 7.33457C55.8633 7.68625 55.2958 8.13297 54.8545 8.66116V7.31963C54.8545 7.20286 54.7594 7.10646 54.6413 7.10646H52.7566C52.6399 7.10646 52.5435 7.2015 52.5435 7.31963V18.3573C52.5435 18.4741 52.6385 18.5705 52.7566 18.5705H54.9033C55.0201 18.5705 55.1165 18.4755 55.1165 18.3573V11.4623C55.1165 11.1242 55.2414 10.7943 55.4668 10.5363C55.7683 10.1914 56.1132 9.88591 56.4933 9.62928C57.0297 9.26674 57.6366 9.08208 58.2992 9.08208C59.0868 9.08208 59.7345 9.31834 60.2233 9.78271C60.7107 10.2471 60.9592 10.9314 60.9592 11.8127V18.3573C60.9592 18.4741 61.0543 18.5705 61.1724 18.5705H63.3191C63.4359 18.5705 63.5323 18.4755 63.5323 18.3573V11.48C63.5323 10.577 63.3354 9.76099 62.9471 9.05492C62.5587 8.34886 62.0034 7.7908 61.2987 7.39431H61.2973Z" fill="white"/>
<path d="M67.9464 7.10938H65.8011C65.6833 7.10938 65.5879 7.20482 65.5879 7.32255V18.3602C65.5879 18.478 65.6833 18.5734 65.8011 18.5734H67.9464C68.0642 18.5734 68.1596 18.478 68.1596 18.3602V7.32255C68.1596 7.20482 68.0642 7.10938 67.9464 7.10938Z" fill="white"/>
<path d="M38.0108 16.024H30.4301C29.9087 16.0212 29.4796 15.5949 29.4756 15.0735V2.07646C29.4756 1.95833 29.3805 1.86328 29.2624 1.86328H26.9256C26.8088 1.86328 26.7124 1.95833 26.7124 2.07646V15.8311C26.7124 17.3424 27.9426 18.5726 29.4538 18.5726H38.0108C38.1276 18.5726 38.224 18.4775 38.224 18.3594V16.2371C38.224 16.1204 38.1289 16.024 38.0108 16.024Z" fill="white"/>
<path d="M74.8129 9.37015H78.4587C78.5755 9.37015 78.6719 9.2751 78.6719 9.15697V7.3212C78.6719 7.20443 78.5768 7.10803 78.4587 7.10803H74.8211C74.6582 7.10803 74.5237 6.97496 74.5237 6.81066V3.53154C74.5224 3.39847 74.4138 3.31836 74.3078 3.31836C74.2522 3.31836 74.1992 3.34144 74.1585 3.38218L72.0376 5.51395C71.9982 5.55468 71.9751 5.60764 71.9751 5.66467V6.8256C71.967 6.98311 71.8366 7.10667 71.6791 7.10803H70.138C70.0212 7.10803 69.9248 7.20307 69.9248 7.3212V9.15697C69.9248 9.27375 70.0199 9.37015 70.138 9.37015H71.7429C71.8719 9.39866 71.967 9.51136 71.9751 9.64307V15.0798C71.9751 16.3493 72.3417 17.3066 73.0627 17.9244C73.7837 18.5436 74.7451 18.8559 75.9182 18.8559H78.4573C78.5741 18.8559 78.6705 18.7608 78.6705 18.6427V16.6494C78.6705 16.5313 78.5755 16.4362 78.4573 16.4362H76.6813C75.4226 16.4362 75.0058 16.0574 75.0017 16.0533C74.6609 15.7532 74.5224 15.3323 74.5224 14.6005V9.66072C74.5224 9.5005 74.65 9.37151 74.8116 9.36608L74.8129 9.37015Z" fill="white"/>
</svg>
